<?xml version="1.0" encoding="utf-8"?>
<!-- Generator: Adobe Illustrator 22.1.0, SVG Export Plug-In . SVG Version: 6.00 Build 0)  -->
<svg version="1.1" id="Layer_1" xmlns="http://www.w3.org/2000/svg" xmlns:xlink="http://www.w3.org/1999/xlink" x="0px" y="0px"
	 viewBox="0 0 72 72" style="enable-background:new 0 0 72 72;" xml:space="preserve">
<style type="text/css">
	.st0{fill:#2D294E;}
</style>
<g>
	<path class="st0" d="M36,0C16.1,0,0,16.1,0,36c0,19.9,16.1,36,36,36s36-16.1,36-36C72,16.1,55.9,0,36,0z M36,16.3
		c0.8-0.9,1.8-1.3,2.9-1.3c0.9,0,1.7,0.3,2.3,1c0.6,0.6,0.9,1.4,0.9,2.4c0,1.2-0.4,2.2-1.2,3.1c-0.8,0.9-1.8,1.4-2.9,1.4
		c-0.9,0-1.7-0.3-2.3-1c-0.6-0.6-0.9-1.4-0.9-2.4C34.8,18.1,35.2,17.1,36,16.3z M42,50.2c-3,2.8-5.1,4.6-6.5,5.4
		c-1.5,0.9-2.7,1.3-3.7,1.3c-1,0-1.9-0.3-2.5-1c-0.6-0.7-0.9-1.5-0.9-2.6c0-2.8,1.6-9.2,4.8-19.6c0.1-0.2,0.1-0.3,0.1-0.5
		c-0.1,0.1-0.3,0.1-0.4,0.2c-0.3,0.2-1.1,0.8-3.4,3.1c-0.4,0.4-0.9,0.4-1.3,0.1l-1.4-1.1c-0.2-0.2-0.4-0.4-0.4-0.7
		c0-0.3,0.1-0.6,0.3-0.8c2.2-2.4,4.2-4.1,6-5.1c1.9-1.1,3.5-1.6,4.9-1.6c0.9,0,1.6,0.2,2.2,0.7c0.6,0.5,0.9,1.2,0.9,2
		c0,0.5-0.2,1.9-2.1,8.1c-2.6,8.8-3.3,12-3.3,13.1c0.5-0.3,1.7-1.1,4.2-3.5c0.4-0.4,1-0.4,1.4,0l1.2,1.2c0.2,0.2,0.3,0.5,0.3,0.7
		C42.3,49.7,42.2,50,42,50.2z"/>
</g>
</svg>
