<?xml version="1.0" encoding="utf-8"?>
<!-- Generator: Adobe Illustrator 22.1.0, SVG Export Plug-In . SVG Version: 6.00 Build 0)  -->
<svg version="1.1" id="Layer_1" xmlns="http://www.w3.org/2000/svg" xmlns:xlink="http://www.w3.org/1999/xlink" x="0px" y="0px"
	 viewBox="0 0 58.7 66.7" style="enable-background:new 0 0 58.7 66.7;" xml:space="preserve">
<style type="text/css">
	.st0{fill:#FFFFFF;}
</style>
<g>
	<g>
		<a xlink:href="http://www.uiowa.edu/"  xlink:title="The University of Iowa">
			<g>
				<g id="ui-dome_2_">
					<path class="st0" d="M47.3,4.4c0,0.4,0,1.2,0.2,1.3c0.6,0.4,1.6,0.7,2,1.1c0.1,0.1,0,0.8-0.3,0.8c-1.6-0.3-1.7-0.3-2.9-0.3
						c-0.1,0-0.3-0.5-0.4-0.9c0-0.2,0.3-0.4,0.4-0.8c0.2-0.6,0-3.2,0.1-5c0-0.4,0-0.6,0.4-0.6c0.3,0,0.4,0.3,0.4,0.6
						C47.2,1.9,47.3,3.2,47.3,4.4L47.3,4.4z"/>
					<path class="st0" d="M53.9,18.1c0.1,0,1-0.1,1.4,0c0.1,0,0.2,0.1,0.2,0.1c0.1,0.2,0.1,0.8,0.1,1c0,0.4-0.2,0.6-0.2,1
						c0,2.9,0.1,6.2,0,6.8c-0.3,1-0.2,1.2-0.6,1.2c-0.1,0-0.3,0-0.3-0.4c0-0.3-0.1-0.6-0.1-1.2c0-1.2,0-4.2,0-5.4
						c0-1.1-0.3-1.2-0.4-1.2c-0.1-0.1-0.3-0.1-0.3-0.3c-0.1-0.4,0-1.2,0.2-1.5C53.7,18.2,53.8,18.1,53.9,18.1L53.9,18.1z"/>
					<path class="st0" d="M56.1,30.8c-1,0-2.4,0-2.7-0.1c-0.2-0.1-0.2-0.4-0.2-0.9c-0.1-3.6,0-7.2,0-10.9c0-0.3-0.1-0.8-0.6-0.8
						c-0.6,0-1.6,0-1.7,0c-0.1,0-0.1,0.1-0.2,0.2c-0.2,0.3-0.3,1.2-0.2,1.5c0,0.1,0.1,0.3,0.3,0.3c0.5,0.1,0.8,0.4,0.8,1.2
						c0,2.7,0.1,8.1-0.3,9c-0.2,0.4-1,0.7-1.2,0.3c-0.2-0.3-0.1-8.4-0.1-11.7c0-0.6-0.2-0.8-0.8-0.8c-0.8,0-1.5,0-2.4,0
						c0,0-0.2,0-0.3,0.2c-0.2,0.5-0.3,1.5-0.2,1.7c0,0,0.1,0.1,0.3,0.2c1.1,0.1,1.6,0.6,1.6,1.7c0,1.7,0.3,8.1-0.5,8.8
						c-0.3,0.3-1.5,0.2-1.7,0.1c-0.2-0.1-0.3-0.2-0.3-0.4c-0.2-1.9,0.1-11.5-0.1-12c-0.1-0.2-0.2-0.2-0.3-0.3c-0.3-0.1-1.7,0-2-0.1
						c0,0-0.2,0-0.2-0.2c0-0.3,0-0.7,0.1-1c0.1-0.1,0.3-0.1,0.3-0.1c4.2,0,10.2,0,12.5,0c0.1,0,0.4,0,0.4-0.3
						c0.1-0.3,0.2-0.9,0.1-1.1c0-0.1-0.1-0.2-0.2-0.2c-0.3,0-9.4,0-14.1-0.1c-0.3,0-0.7,0-0.8-0.2c0-0.2,0-0.7,0-0.9
						c0.5-0.9,0.9-0.7,1.2-2.1c0.2-0.8-0.1-1.5,0.3-2.1c0.5-0.9,0.9-1.2,1.3-1.8c0.2-0.4-0.3-1-0.7-0.9c-0.3,0.1-2.2,1.4-3.3,3.1
						c-0.8,1.4-1.1,2.9-1.7,4.3c-0.1,0.4-0.3,0.5-0.9,0.5c-0.3,0-0.5,1.3-0.3,1.5c0,0,0.1,0,0.2,0.1c0.5,0.1,0.7,0.8,0.7,1.4
						c0,0,0.1,10.8-0.2,12c-0.2,0.8-0.4,0.7-0.6,0.8c0,0-0.1,0-0.1,0.1c-0.1,0.2-0.2,0.8-0.1,1.1c0,0.1,0,0.2,0.2,0.2
						c7.1,0,15.6,0,18.6,0c0.2,0,0.2,0,0.3-0.3c0.1-0.3,0.1-0.7,0.1-0.9C56.4,30.8,56.2,30.8,56.1,30.8L56.1,30.8z M40.1,30.4
						c-0.3,0.4-0.6,0.5-0.6,0.1c0-3,0-9.3,0-9.5c0.1-0.3,0.6-0.5,0.8,0C40.6,21.7,40.7,29.8,40.1,30.4L40.1,30.4z M43.4,30.4
						c-0.3,0.4-1.1,0.5-1.2,0.1c-0.3-0.7-0.1-10-0.1-10.1c0.1-0.3,0.7-0.3,0.9-0.2c0.6,0.4,0.6,0.7,0.7,1.6
						C43.9,24.3,43.9,29.8,43.4,30.4L43.4,30.4z"/>
				</g>
			</g>
			<g>
				<g id="ui-wordmark_2_">
					<path class="st0" d="M55.4,39.4c0.1-0.2,0.3-0.5,0.5-0.8c0.3-0.5,0.6-0.8,0.8-1.2c0.3-0.3,0.5-0.7,1-1.2h-1.9l-0.2,0.5h0.3
						c0.2,0,0.3,0,0.3,0.2c0,0.1,0,0.4-0.3,0.7l-1.2,1.7l-1.7-3h0h-1.5H47l-0.1,1.4h0.6l0-0.3c0-0.2,0.1-0.3,0.3-0.4
						c0.3-0.2,1-0.2,1.6-0.2v5.2c0,0.3,0,0.4-0.1,0.6c0,0.1-0.1,0.3-0.2,0.3h2.1l0.2-0.5H51c-0.3,0-0.4,0-0.6-0.2
						c-0.1-0.1-0.1-0.3-0.1-0.4v-5c0.3,0,1.4,0,1.6,0.2c0.3,0.3,0.7,0.9,0.7,0.9c0.1,0.3,0.3,0.5,0.5,0.7c0.4,0.6,0.7,1.1,0.9,1.6
						v1.7c0,0.3,0,0.5-0.1,0.7c0,0.1-0.2,0.3-0.3,0.3h2.1l0.2-0.5h-0.3c-0.3,0-0.4,0-0.6-0.2C55,42.1,55,41.9,55,41.8
						c0,0,0-1.6,0-1.8C55.2,39.8,55.3,39.6,55.4,39.4L55.4,39.4z"/>
					<path class="st0" d="M41.9,39l-0.7-0.3c-0.7-0.3-1.3-0.6-1.2-1.2c0.2-1.1,2.6-1.3,2.4,0.2H43l0.3-1.3c-0.6-0.2-1.1-0.3-1.8-0.3
						c-1.4,0-2.7,0.7-2.6,1.8c0.1,0.8,0.7,1.2,1.5,1.5l0.7,0.3c0.8,0.3,1.4,0.7,1.4,1.4c0,0.7-0.7,1.3-1.7,1.3
						c-1.3,0-1.7-0.4-1.7-0.4l-2.5-2.7c0.9-0.2,1.6-0.8,1.6-1.7c0-1.1-1.2-1.5-2.3-1.4h-2.7l-0.2,0.4h0.3c0.2,0,0.3,0,0.4,0.2
						c0.2,0.2,0.2,0.6,0.2,1v4.2c0,0.3-0.1,0.6-0.3,0.8h2l0.2-0.5h-0.3c-0.4,0-0.5-0.2-0.5-0.6v-5.1c1.1-0.2,2.2,0.1,2.2,1.1
						c0,0.7-0.8,1.2-2,1.3l3.3,3.7c0,0,1.8,0.1,2.3,0.1c1.5,0,2.8-0.9,2.8-2.1C43.6,39.8,42.8,39.4,41.9,39L41.9,39z"/>
					<path class="st0" d="M20.3,24.8h-0.6l0-0.3c0-0.4,0-0.6-0.3-0.9c-0.3-0.3-1.5-0.3-2.3-0.3v7.4c0,0.3,0,0.6,0.1,0.7
						c0.2,0.3,0.5,0.3,0.8,0.3h0.3l-0.2,0.5h-2.5c0.1-0.1,0.2-0.3,0.2-0.4c0.1-0.3,0.1-0.6,0.1-0.9v-7.6c-0.8,0-1.9,0-2.3,0.3
						c-0.3,0.2-0.4,0.3-0.4,0.6l0,0.4h-0.6l0.2-1.9h7.7L20.3,24.8L20.3,24.8z"/>
					<path class="st0" d="M27.1,32.2h-1.9c0.1-0.3,0.2-0.5,0.2-0.8v-2.8c-0.3,0.2-0.6,0.2-0.9,0.3c-0.3,0-0.6,0-1,0
						c-0.6,0-0.9,0-1.5,0v2.2c0,0.4,0.1,0.6,0.6,0.6h0.3l-0.2,0.5h-2c0.2-0.3,0.2-0.5,0.3-0.9c0-0.1,0-0.3,0-0.4v-4
						c0-0.2,0-0.6-0.1-0.8C20.7,26,20.5,26,20.3,26h-0.3l0.2-0.5H22c0,0.1-0.1,0.2-0.1,0.3c0,0.2,0,0.7,0,0.9v1.6h3.4v-1.4
						c0-0.2,0-0.6-0.1-0.8C25.1,26,24.9,26,24.7,26h-0.3l0.2-0.5h1.8c0,0.2,0,0.2,0,0.3c0,0.2,0,0.7,0,0.9v4.5
						c0,0.4,0.1,0.6,0.6,0.6h0.3L27.1,32.2L27.1,32.2z"/>
					<path class="st0" d="M32.7,32.2h-4.7c0.1-0.1,0.2-0.3,0.3-0.4c0.1-0.3,0-0.5,0-0.8v-3.8c0-0.2,0-0.7-0.1-0.9
						C28,26.1,27.9,26,27.7,26h-0.3l0.2-0.4c0,0,4.7,0,4.9,0L32.3,27h-0.6c0-0.3,0-0.6-0.2-0.8C31.2,26,30.6,26,30,26
						c-0.3,0-0.5,0-0.8,0.1v2.2h2.7c-0.2,0.5-0.5,0.6-1,0.6c-0.2,0-0.4,0-0.6,0c-0.4,0-0.7,0-1.1,0v2c0,0.2,0.1,0.5,0.2,0.6
						c0.1,0.1,0.6,0.2,1.1,0.2c0.5,0,0.9,0,1.2-0.3c0.2-0.2,0.3-0.4,0.4-0.7h0.7L32.7,32.2L32.7,32.2z"/>
					<path class="st0" d="M9.2,42.9H7.1V42c-1.5,0.8-2.9,1.3-4.5,0.9c-1.9-0.6-1.8-2.8-1.8-4.7c0-1.5,0.4-3.3,0.1-3.9
						c-0.1-0.2-0.4-0.4-0.7-0.4H0l0.1-0.5h2.4c-0.1,0.2-0.1,0.3-0.2,0.5c-0.1,0.6-0.4,2.8-0.4,4.4c0,1.8,0.1,3.3,1.7,3.8
						c1.3,0.4,2.4,0,3.5-0.7V35c0-0.4,0-0.7-0.3-0.9c-0.2-0.2-0.4-0.2-0.7-0.2H5.9l0.1-0.5h2.4c-0.1,0.2-0.2,0.3-0.2,0.6
						c-0.1,0.4,0,0.6,0,1v6c0,0.5,0,0.9,0.4,1.2c0.2,0.2,0.4,0.2,0.7,0.2h0.2L9.2,42.9L9.2,42.9z"/>
					<path class="st0" d="M16.3,36.7c0,0.2-0.1,0.8-0.1,1v5.1h-0.8c0-0.3-0.1-0.3-0.3-0.6s-0.3-0.4-0.4-0.6l-3.6-4.2v3.7
						c0,0.4,0,0.9,0.1,1c0.1,0.2,0.3,0.2,0.5,0.2h0.3l-0.2,0.5H9.9c0.1-0.1,0.3-0.3,0.3-0.5c0.1-0.4,0.1-0.6,0.1-0.9v-3.9
						c0-0.2,0-0.6-0.2-0.8c-0.1-0.1-0.3-0.1-0.4-0.1H9.5l0.2-0.4h1.9c0.1,0.3,0.3,0.6,0.6,0.9l3.3,3.9v-3.3c0-0.4,0-0.7-0.2-0.9
						c-0.1-0.1-0.3-0.2-0.4-0.2h-0.3l0.2-0.4h1.7C16.4,36.4,16.3,36.6,16.3,36.7L16.3,36.7z"/>
					<path class="st0" d="M19.9,42.9h-2.1c0.1-0.1,0.2-0.2,0.2-0.3c0.1-0.2,0.1-0.4,0.1-0.6v-4.6c0-0.2,0-0.4-0.1-0.5
						c-0.1-0.1-0.2-0.2-0.4-0.2h-0.2l0.2-0.4h1.9c-0.1,0.1-0.1,0.2-0.2,0.3c-0.1,0.2-0.1,0.5-0.1,0.9v4.4c0,0.2,0,0.3,0.1,0.4
						c0.1,0.1,0.3,0.2,0.5,0.2H20L19.9,42.9L19.9,42.9z"/>
					<path class="st0" d="M25.9,37.9c-0.3,0.5-0.5,1.1-0.8,1.8c-0.5,1.1-1,2.4-1.1,3.3h-0.9c-0.1-0.6-0.7-2.1-1.2-3.4
						c-0.4-1-1.1-2.3-1.3-2.5c-0.1-0.2-0.3-0.3-0.5-0.3H20l0.1-0.4h1.7l2.1,5l1.5-3.6c0.1-0.3,0.2-0.6,0.1-0.7
						c-0.1-0.2-0.2-0.3-0.4-0.3h-0.3l0.1-0.4H27C26.4,36.9,26.2,37.4,25.9,37.9L25.9,37.9z"/>
					<path class="st0" d="M32.6,42.9h-4.7c0.1-0.1,0.2-0.3,0.3-0.4c0.1-0.3,0-0.5,0-0.8v-3.8c0-0.2,0-0.7-0.1-0.9
						c-0.1-0.2-0.2-0.3-0.5-0.3h-0.3l0.2-0.4c0,0,4.7,0,4.9,0l-0.2,1.5h-0.6c0-0.3,0-0.6-0.2-0.8c-0.2-0.2-0.8-0.3-1.4-0.3
						c-0.3,0-0.5,0-0.8,0.1V39h2.7c-0.2,0.5-0.5,0.6-1,0.6c-0.2,0-0.4,0-0.6,0c-0.4,0-0.7,0-1.1,0v2c0,0.2,0.1,0.5,0.2,0.6
						c0.1,0.1,0.6,0.2,1.1,0.2c0.5,0,0.9,0,1.2-0.3c0.2-0.2,0.3-0.4,0.4-0.7h0.7L32.6,42.9L32.6,42.9z"/>
					<path class="st0" d="M46.6,42.9h-2.1c0.1-0.1,0.2-0.2,0.2-0.3c0.1-0.2,0.1-0.4,0.1-0.6v-4.6c0-0.2,0-0.4-0.1-0.5
						c-0.1-0.1-0.2-0.2-0.4-0.2h-0.2l0.2-0.4h1.9C46,36.3,46,36.4,46,36.5c-0.1,0.2-0.1,0.5-0.1,0.9v4.4c0,0.2,0,0.3,0.1,0.4
						c0.1,0.1,0.3,0.2,0.5,0.2h0.3L46.6,42.9L46.6,42.9z"/>
					<path class="st0" d="M22.2,50c0.3,1.5-0.5,3-2.1,3.3c-1.6,0.3-2.9-0.9-3.2-2.4c-0.3-1.5,0.3-3,2-3.3
						C20.6,47.3,21.9,48.5,22.2,50L22.2,50z M23.4,50c-0.3-1.9-1.9-3.3-4.3-3c-2.3,0.3-3.6,1.9-3.3,3.9c0.3,1.9,1.8,3.2,4.2,2.9
						C22.3,53.6,23.7,52,23.4,50L23.4,50z"/>
					<path class="st0" d="M28.3,48.6h-0.6c0-0.3,0-0.6-0.3-0.8c-0.2-0.2-0.7-0.3-1.2-0.3c-0.3,0-0.5,0-0.8,0.1v2.2h2.7
						c0,0.2-0.2,0.4-0.3,0.5c-0.3,0.1-0.7,0.1-1.2,0.2c-0.4,0-0.7,0-1.1,0v2.1c0,0.2,0.1,0.5,0.2,0.6c0.1,0.1,0.3,0.2,0.5,0.2
						c0.1,0,0.3,0,0.3,0c-0.1,0.3-0.1,0.5-0.1,0.5h-2.1c0.1-0.1,0.2-0.3,0.3-0.4c0.1-0.3,0-0.5,0-0.8v-3.8c0-0.2,0-0.8-0.1-1
						c-0.1-0.2-0.3-0.2-0.5-0.2h-0.3l0.2-0.4c0,0,4.5,0,4.7,0L28.3,48.6L28.3,48.6z"/>
					<path class="st0" d="M34.9,53.8h-2.5c0.1-0.1,0.2-0.3,0.2-0.4c0.1-0.3,0.1-0.6,0.1-0.9v-6.6c0-0.3,0-0.6-0.2-0.7
						c-0.2-0.2-0.3-0.3-0.6-0.3h-0.2l0.1-0.5h2.3c-0.1,0.1-0.1,0.2-0.2,0.3c-0.1,0.3-0.2,0.8-0.2,1.3v6.3c0,0.3,0,0.6,0.1,0.7
						c0.2,0.3,0.5,0.3,0.8,0.3h0.3L34.9,53.8L34.9,53.8z"/>
					<path class="st0" d="M41.7,50c0.3,1.5-0.5,3-2.1,3.3c-1.6,0.3-2.9-0.9-3.2-2.4c-0.3-1.5,0.3-3,2-3.3
						C40.1,47.3,41.4,48.5,41.7,50L41.7,50z M42.9,50c-0.3-1.9-1.9-3.3-4.3-3C36.3,47.4,35,49,35.3,51c0.3,1.9,1.8,3.2,4.2,2.9
						C41.7,53.6,43.1,52,42.9,50L42.9,50z"/>
					<path class="st0" d="M52,48.8c-0.3,0.5-0.5,1.1-0.8,1.8c-0.5,1.2-0.9,2.5-0.9,3.3h-0.9c-0.1-0.6-0.6-1.9-1.1-3.3
						c-0.1-0.2-0.2-0.5-0.3-0.7c-0.1,0.3-0.3,0.5-0.5,1c-0.5,1.2-0.9,2.2-0.9,3h-0.9c-0.1-0.6-0.7-2.1-1.2-3.4
						c-0.4-1-1.1-2.3-1.3-2.5c-0.1-0.2-0.3-0.3-0.5-0.3h-0.2l0.1-0.4h1.7l1.9,5c0.3-0.6,1.3-3,1.3-3.1c-0.3-0.6-0.5-1.2-0.6-1.3
						c-0.2-0.2-0.3-0.3-0.5-0.3h-0.3l0.2-0.4h1.7c0.6,1.4,1.4,3.7,1.8,5l1.4-3.5c0.1-0.3,0.3-0.7,0.2-0.8c-0.1-0.2-0.2-0.3-0.4-0.3
						h-0.3l0.1-0.4H53C52.5,47.8,52.2,48.3,52,48.8L52,48.8z"/>
					<path class="st0" d="M55.7,50.8c-0.7,0-1.3,0-1.9,0l1-2.4L55.7,50.8L55.7,50.8z M58.7,53.3h-0.3c-0.2,0-0.4-0.1-0.5-0.3
						c-0.2-0.2-0.8-1.5-1.2-2.6c-0.5-1.3-1-2.7-1.2-3.4H54c0.3,0.7-0.3,2.1-0.8,3.2c-0.6,1.4-0.9,2.2-1.9,3.5h2.1l0.1-0.5h-0.3
						c-0.2,0-0.4-0.1-0.4-0.3c0-0.1,0-0.4,0.1-0.7l0.4-1H55c0.3,0,0.6-0.1,0.8-0.3l1,2.7h1.7L58.7,53.3L58.7,53.3z"/>
				</g>
			</g>
		</a>
		<a xlink:href="http://www.lib.uiowa.edu/"  xlink:title="The University of Iowa Libraries">
			<g>
				<g id="uilibraries-wordmark_2_">
					<path class="st0" d="M4,57.4v8.1h3v1.1H1.9v-9.2H4z"/>
					<path class="st0" d="M10.3,57.5v9.1H8.1v-9.1H10.3z"/>
					<path class="st0" d="M15.8,57.5c0.6,0,1.1,0.2,1.5,0.6c0.4,0.4,0.6,0.9,0.6,1.5c0,0.2,0,0.4-0.1,0.6c-0.1,0.4-0.4,0.8-0.8,1
						c-0.4,0.3-0.8,0.4-1.3,0.5l0,0.1c0.6,0,1.2,0.2,1.7,0.6c0.5,0.4,0.7,0.9,0.7,1.5c0,0.8-0.3,1.4-0.8,1.9
						c-0.5,0.5-1.1,0.8-1.9,0.8h-3.7v-9.1L15.8,57.5L15.8,57.5z M13.9,58.2v3.3h0.8c0.4-0.1,0.7-0.3,0.9-0.6
						c0.2-0.3,0.3-0.7,0.3-1.1s-0.1-0.8-0.4-1.1c-0.3-0.3-0.6-0.5-1.1-0.5L13.9,58.2z M13.9,65.9h0.8c0.5,0,0.9-0.3,1.1-0.6
						c0.2-0.3,0.4-0.7,0.4-1.2c0-0.4-0.1-0.9-0.3-1.2c-0.2-0.4-0.6-0.6-1-0.7h-0.9L13.9,65.9z"/>
					<path class="st0" d="M23.6,57.5c0.6,0,1.1,0.2,1.5,0.7c0.4,0.5,0.6,1,0.6,1.6c0,0.3-0.1,0.7-0.3,1c-0.2,0.3-0.4,0.6-0.7,0.8
						c-0.3,0.2-0.7,0.4-1.2,0.5l2.9,4.5h-2.4l-2.4-4.2h-0.1v4.2h-2.1v-9.1L23.6,57.5L23.6,57.5z M21.6,61.8c0.1,0,0.2,0,0.3,0
						c1,0,1.5-0.3,1.6-0.8c0.1-0.6,0.2-0.9,0.2-0.9c0,0,0-0.1,0-0.2c0-0.5-0.1-0.9-0.4-1.2c-0.3-0.3-0.6-0.5-1.1-0.5h-0.6V61.8z"/>
					<path class="st0" d="M31.2,57.3c0.4,1.1,0.9,2.2,1.3,3.3c0.4,1.1,0.8,2.1,1.2,3.1c0.4,1,0.8,1.9,1.2,2.9h-2.2l-0.9-2.7h-3.2
						l-0.9,2.7h-1.2l3.8-9.2L31.2,57.3L31.2,57.3z M28.9,63h2.4l-1.2-3L28.9,63z"/>
					<path class="st0" d="M39.7,57.5c0.6,0,1.1,0.2,1.5,0.7c0.4,0.5,0.6,1,0.6,1.6c0,0.3-0.1,0.7-0.3,1c-0.2,0.3-0.4,0.6-0.7,0.8
						c-0.3,0.2-0.7,0.4-1.2,0.5l2.9,4.5h-2.4l-2.4-4.2h-0.1v4.2h-2.1v-9.1L39.7,57.5L39.7,57.5z M37.7,61.8c0.1,0,0.2,0,0.3,0
						c1,0,1.5-0.3,1.6-0.8s0.2-0.9,0.2-0.9c0,0,0-0.1,0-0.2c0-0.5-0.1-0.9-0.4-1.2c-0.3-0.3-0.6-0.5-1.1-0.5h-0.6V61.8z"/>
					<path class="st0" d="M45.7,57.5v9.1h-2.2v-9.1H45.7z"/>
					<path class="st0" d="M52.3,57.5v1.1h-3.1v2.7h3v0.9h-3v3.3h3.1v1h-5.2v-9.1L52.3,57.5L52.3,57.5z"/>
					<path class="st0" d="M55.9,57.3c0.6,0,1.3,0.1,1.9,0.4c0.1,0,0.2,0.1,0.3,0.3l-0.4,1.2c-0.1,0-0.2,0-0.3,0
						c-0.2-0.4-0.4-0.6-0.7-0.8c-0.3-0.2-0.6-0.3-0.9-0.3c-0.1,0-0.3,0-0.4,0c-0.1,0-0.3,0.1-0.4,0.1c-0.2,0.1-0.3,0.3-0.4,0.4
						c-0.1,0.2-0.1,0.3-0.1,0.5c0,0.3,0.1,0.5,0.2,0.7c0.1,0.2,0.3,0.4,0.6,0.6l2.2,1.2c0.4,0.3,0.6,0.6,0.8,0.9
						c0.2,0.3,0.3,0.7,0.3,1.2c0,0.7-0.2,1.3-0.6,1.8c-0.4,0.6-0.9,0.9-1.4,1c-0.5,0.1-1,0.2-1.4,0.2c-0.8,0-1.6-0.2-2.3-0.5
						l0.3-1.7h0.3c0.1,0.4,0.3,0.8,0.7,1c0.3,0.3,0.7,0.4,1.2,0.4c0.3,0,0.6-0.1,0.9-0.2c0.3-0.1,0.5-0.4,0.6-0.7
						c0-0.2,0.1-0.3,0.1-0.5c0-0.2,0-0.4-0.2-0.6c-0.1-0.2-0.3-0.4-0.5-0.6c-0.7-0.4-1.5-0.9-2.1-1.2c-0.8-0.6-1.2-1.4-1.2-2.3
						c0-0.5,0.1-1,0.4-1.4c0.3-0.4,0.5-0.7,0.9-0.9c0.3-0.2,0.7-0.3,1.1-0.4C55.5,57.3,55.7,57.3,55.9,57.3z"/>
				</g>
			</g>
		</a>
	</g>
</g>
</svg>
