<?xml version="1.0" encoding="utf-8"?>
<!-- Generator: Adobe Illustrator 22.1.0, SVG Export Plug-In . SVG Version: 6.00 Build 0)  -->
<svg version="1.1" id="Layer_1" xmlns="http://www.w3.org/2000/svg" xmlns:xlink="http://www.w3.org/1999/xlink" x="0px" y="0px"
	 viewBox="0 0 213.9 66.7" style="enable-background:new 0 0 213.9 66.7;" xml:space="preserve">
<style type="text/css">
	.st0{fill:#FFFFFF;}
</style>
<g>
	<path class="st0" d="M33.3,0C14.9,0,0,14.9,0,33.3c0,18.4,14.9,33.3,33.3,33.3s33.3-14.9,33.3-33.3C66.7,14.9,51.7,0,33.3,0z
		 M50.9,44.7v4.2H15.8v-4.2h26c1.8,0,3.2-0.5,4.1-1.4c1-0.9,1.4-2.1,1.4-3.7c0-1.4-0.4-2.4-1.2-3.2c-0.8-0.7-2-1.1-3.6-1.1H29.7v0
		h-6c-2.7,0-4.7-0.7-6.1-2.1c-1.4-1.4-2.1-3.3-2.1-5.7c0-1.2,0.2-2.3,0.7-3.3c0.4-1,1.1-1.9,1.9-2.5h-2.3v-4h35.1V22h-26
		c-1.8,0-3.2,0.4-4.1,1.3c-1,0.9-1.4,2.1-1.4,3.6c0,1.4,0.4,2.4,1.2,3.1c0.8,0.7,2.1,1.1,3.7,1.1h5.5v0h13.3c2.7,0,4.7,0.7,6,2.1
		c1.4,1.4,2,3.2,2,5.5c0,1.3-0.2,2.4-0.6,3.4c-0.4,1-1,1.9-1.7,2.6H50.9z"/>
	<g>
		<g>
			<path class="st0" d="M79.3,19.8h4.1c1,0,1.9,0.2,2.7,0.6c0.8,0.4,1.4,0.9,1.8,1.7c0.4,0.7,0.6,1.5,0.6,2.5c0,0.9-0.2,1.8-0.6,2.5
				c-0.4,0.7-1,1.3-1.8,1.7c-0.8,0.4-1.7,0.6-2.7,0.6h-4.1V19.8z M83.3,27.7c0.7,0,1.3-0.1,1.8-0.4c0.5-0.3,0.9-0.6,1.2-1.1
				c0.3-0.5,0.4-1.1,0.4-1.7s-0.1-1.2-0.4-1.7c-0.3-0.5-0.7-0.9-1.2-1.1c-0.5-0.3-1.1-0.4-1.8-0.4h-2.3v6.4H83.3z"/>
			<path class="st0" d="M90.3,20.6c-0.2-0.2-0.3-0.4-0.3-0.7s0.1-0.5,0.3-0.7s0.5-0.3,0.8-0.3c0.3,0,0.6,0.1,0.8,0.3
				c0.2,0.2,0.3,0.4,0.3,0.7c0,0.3-0.1,0.5-0.3,0.7c-0.2,0.2-0.5,0.3-0.8,0.3C90.8,20.9,90.5,20.8,90.3,20.6z M90.2,22h1.7v7.2h-1.7
				V22z"/>
			<path class="st0" d="M101.2,22v6.1c0,2.5-1.3,3.8-3.9,3.8c-0.7,0-1.3-0.1-2-0.3c-0.6-0.2-1.1-0.4-1.5-0.8l0.8-1.3
				c0.3,0.3,0.7,0.5,1.2,0.6c0.5,0.2,1,0.2,1.5,0.2c0.8,0,1.4-0.2,1.7-0.5c0.4-0.4,0.6-0.9,0.6-1.6v-0.4c-0.3,0.3-0.6,0.6-1,0.7
				c-0.4,0.2-0.9,0.2-1.4,0.2c-0.7,0-1.3-0.1-1.8-0.4c-0.6-0.3-1-0.7-1.3-1.2c-0.3-0.5-0.5-1.1-0.5-1.8c0-0.7,0.2-1.3,0.5-1.8
				c0.3-0.5,0.8-0.9,1.3-1.2c0.6-0.3,1.2-0.4,1.8-0.4c0.5,0,1,0.1,1.4,0.3c0.4,0.2,0.8,0.4,1.1,0.8v-1H101.2z M99,26.9
				c0.4-0.4,0.6-0.9,0.6-1.5c0-0.6-0.2-1.1-0.6-1.5c-0.4-0.4-0.9-0.6-1.6-0.6c-0.6,0-1.2,0.2-1.6,0.6c-0.4,0.4-0.6,0.9-0.6,1.5
				c0,0.6,0.2,1.1,0.6,1.5c0.4,0.4,0.9,0.6,1.6,0.6C98,27.5,98.6,27.3,99,26.9z"/>
			<path class="st0" d="M103.5,20.6c-0.2-0.2-0.3-0.4-0.3-0.7s0.1-0.5,0.3-0.7s0.5-0.3,0.8-0.3c0.3,0,0.6,0.1,0.8,0.3
				c0.2,0.2,0.3,0.4,0.3,0.7c0,0.3-0.1,0.5-0.3,0.7c-0.2,0.2-0.5,0.3-0.8,0.3C104,20.9,103.7,20.8,103.5,20.6z M103.4,22h1.7v7.2
				h-1.7V22z"/>
			<path class="st0" d="M111.6,28.8c-0.2,0.2-0.4,0.3-0.7,0.4c-0.3,0.1-0.6,0.1-0.9,0.1c-0.8,0-1.4-0.2-1.8-0.6
				c-0.4-0.4-0.6-1-0.6-1.8v-3.4h-1.2v-1.3h1.2v-1.6h1.7v1.6h1.9v1.3h-1.9v3.4c0,0.3,0.1,0.6,0.3,0.8c0.2,0.2,0.4,0.3,0.7,0.3
				c0.4,0,0.7-0.1,0.9-0.3L111.6,28.8z"/>
			<path class="st0" d="M118.2,22.7c0.6,0.5,0.8,1.3,0.8,2.3v4.2h-1.6v-0.9c-0.2,0.3-0.5,0.6-0.9,0.7c-0.4,0.2-0.8,0.2-1.4,0.2
				c-0.5,0-1-0.1-1.4-0.3c-0.4-0.2-0.7-0.4-0.9-0.8c-0.2-0.3-0.3-0.7-0.3-1.1c0-0.6,0.2-1.2,0.7-1.6c0.5-0.4,1.2-0.6,2.3-0.6h1.9
				v-0.1c0-0.5-0.2-0.9-0.4-1.2c-0.3-0.3-0.7-0.4-1.3-0.4c-0.4,0-0.8,0.1-1.2,0.2c-0.4,0.1-0.7,0.3-1,0.5l-0.7-1.2
				c0.4-0.3,0.8-0.5,1.4-0.7c0.5-0.2,1.1-0.2,1.7-0.2C116.8,22,117.6,22.2,118.2,22.7z M116.6,27.8c0.3-0.2,0.6-0.5,0.7-0.8v-0.8
				h-1.7c-1,0-1.4,0.3-1.4,1c0,0.3,0.1,0.5,0.4,0.7c0.2,0.2,0.6,0.3,1,0.3C115.9,28.1,116.3,28,116.6,27.8z"/>
			<path class="st0" d="M121.1,19.2h1.7v10h-1.7V19.2z"/>
			<path class="st0" d="M129.7,29c-0.7-0.2-1.2-0.5-1.6-0.8l0.6-1.4c0.4,0.3,0.9,0.6,1.4,0.7c0.6,0.2,1.1,0.3,1.7,0.3
				c0.7,0,1.2-0.1,1.6-0.3c0.3-0.2,0.5-0.5,0.5-0.9c0-0.3-0.1-0.5-0.3-0.7c-0.2-0.2-0.4-0.3-0.7-0.4c-0.3-0.1-0.7-0.2-1.2-0.3
				c-0.7-0.2-1.3-0.3-1.7-0.5c-0.4-0.2-0.8-0.4-1.1-0.8s-0.5-0.9-0.5-1.5c0-0.5,0.1-1,0.4-1.4s0.7-0.8,1.3-1
				c0.6-0.3,1.3-0.4,2.1-0.4c0.6,0,1.1,0.1,1.7,0.2c0.6,0.1,1,0.3,1.4,0.6l-0.5,1.4c-0.4-0.2-0.8-0.4-1.3-0.6
				c-0.4-0.1-0.9-0.2-1.3-0.2c-0.7,0-1.2,0.1-1.5,0.3c-0.3,0.2-0.5,0.5-0.5,0.9c0,0.3,0.1,0.5,0.3,0.7c0.2,0.2,0.4,0.3,0.7,0.4
				c0.3,0.1,0.7,0.2,1.2,0.3c0.7,0.2,1.3,0.3,1.7,0.5c0.4,0.2,0.8,0.4,1.1,0.8c0.3,0.4,0.5,0.8,0.5,1.4c0,0.5-0.1,1-0.4,1.4
				c-0.3,0.4-0.7,0.8-1.3,1s-1.3,0.4-2.1,0.4C131.1,29.3,130.4,29.2,129.7,29z"/>
			<path class="st0" d="M138.5,28.8c-0.6-0.3-1.1-0.7-1.4-1.3c-0.3-0.6-0.5-1.2-0.5-1.9s0.2-1.3,0.5-1.9c0.3-0.6,0.8-1,1.4-1.3
				c0.6-0.3,1.3-0.5,2-0.5c0.7,0,1.3,0.1,1.9,0.4c0.5,0.3,0.9,0.7,1.2,1.2l-1.3,0.8c-0.2-0.3-0.5-0.6-0.8-0.7
				c-0.3-0.2-0.6-0.2-1-0.2c-0.6,0-1.1,0.2-1.6,0.6c-0.4,0.4-0.6,1-0.6,1.6s0.2,1.2,0.6,1.6c0.4,0.4,0.9,0.6,1.6,0.6
				c0.4,0,0.7-0.1,1-0.2c0.3-0.2,0.6-0.4,0.8-0.7l1.3,0.8c-0.3,0.5-0.7,1-1.2,1.2c-0.5,0.3-1.1,0.4-1.8,0.4
				C139.7,29.3,139.1,29.1,138.5,28.8z"/>
			<path class="st0" d="M151.1,22.8c0.5,0.5,0.8,1.3,0.8,2.3v4.1h-1.7v-3.9c0-0.6-0.1-1.1-0.4-1.4c-0.3-0.3-0.7-0.5-1.3-0.5
				c-0.6,0-1.1,0.2-1.5,0.6c-0.4,0.4-0.5,0.9-0.5,1.6v3.6h-1.7v-10h1.7v3.6c0.3-0.3,0.6-0.5,1-0.7C148,22,148.5,22,149,22
				C149.9,22,150.6,22.2,151.1,22.8z"/>
			<path class="st0" d="M155.4,28.8c-0.6-0.3-1-0.7-1.4-1.3c-0.3-0.6-0.5-1.2-0.5-1.9s0.2-1.3,0.5-1.9c0.3-0.6,0.8-1,1.4-1.3
				c0.6-0.3,1.2-0.5,2-0.5c0.7,0,1.4,0.2,2,0.5c0.6,0.3,1,0.7,1.4,1.3c0.3,0.6,0.5,1.2,0.5,1.9s-0.2,1.3-0.5,1.9
				c-0.3,0.6-0.8,1-1.4,1.3c-0.6,0.3-1.2,0.5-2,0.5C156.7,29.3,156,29.1,155.4,28.8z M158.9,27.2c0.4-0.4,0.6-1,0.6-1.6
				c0-0.7-0.2-1.2-0.6-1.6c-0.4-0.4-0.9-0.6-1.5-0.6c-0.6,0-1.1,0.2-1.5,0.6c-0.4,0.4-0.6,1-0.6,1.6c0,0.7,0.2,1.2,0.6,1.6
				c0.4,0.4,0.9,0.6,1.5,0.6C158,27.9,158.5,27.7,158.9,27.2z"/>
			<path class="st0" d="M162.8,19.2h1.7v10h-1.7V19.2z"/>
			<path class="st0" d="M171.9,22.7c0.6,0.5,0.8,1.3,0.8,2.3v4.2h-1.6v-0.9c-0.2,0.3-0.5,0.6-0.9,0.7c-0.4,0.2-0.8,0.2-1.4,0.2
				c-0.5,0-1-0.1-1.4-0.3c-0.4-0.2-0.7-0.4-0.9-0.8c-0.2-0.3-0.3-0.7-0.3-1.1c0-0.6,0.2-1.2,0.7-1.6c0.5-0.4,1.2-0.6,2.3-0.6h1.9
				v-0.1c0-0.5-0.2-0.9-0.4-1.2c-0.3-0.3-0.7-0.4-1.3-0.4c-0.4,0-0.8,0.1-1.2,0.2c-0.4,0.1-0.7,0.3-1,0.5l-0.7-1.2
				c0.4-0.3,0.8-0.5,1.4-0.7c0.5-0.2,1.1-0.2,1.7-0.2C170.5,22,171.3,22.2,171.9,22.7z M170.3,27.8c0.3-0.2,0.6-0.5,0.7-0.8v-0.8
				h-1.7c-1,0-1.4,0.3-1.4,1c0,0.3,0.1,0.5,0.4,0.7c0.2,0.2,0.6,0.3,1,0.3C169.6,28.1,170,28,170.3,27.8z"/>
			<path class="st0" d="M179,22v1.6c-0.1,0-0.3,0-0.4,0c-0.7,0-1.2,0.2-1.5,0.6c-0.4,0.4-0.6,0.9-0.6,1.6v3.5h-1.7V22h1.6v1
				C176.9,22.3,177.8,22,179,22z"/>
			<path class="st0" d="M181,29.1c-0.6-0.2-1-0.3-1.3-0.6l0.6-1.3c0.3,0.2,0.7,0.4,1.2,0.5c0.5,0.1,0.9,0.2,1.3,0.2
				c1,0,1.5-0.3,1.5-0.8c0-0.3-0.1-0.4-0.4-0.5c-0.3-0.1-0.7-0.2-1.2-0.3c-0.6-0.1-1.1-0.2-1.4-0.3c-0.4-0.1-0.7-0.3-1-0.6
				c-0.3-0.3-0.4-0.7-0.4-1.2c0-0.7,0.3-1.2,0.9-1.6c0.6-0.4,1.3-0.6,2.3-0.6c0.5,0,1,0.1,1.5,0.2c0.5,0.1,0.9,0.3,1.2,0.4l-0.6,1.3
				c-0.6-0.4-1.3-0.5-2.1-0.5c-0.5,0-0.9,0.1-1.1,0.2c-0.3,0.1-0.4,0.3-0.4,0.6c0,0.3,0.1,0.5,0.4,0.6c0.3,0.1,0.7,0.2,1.3,0.3
				c0.6,0.1,1,0.2,1.4,0.3c0.4,0.1,0.7,0.3,0.9,0.6c0.3,0.3,0.4,0.7,0.4,1.2c0,0.7-0.3,1.2-0.9,1.6c-0.6,0.4-1.4,0.6-2.4,0.6
				C182.1,29.3,181.5,29.2,181,29.1z"/>
			<path class="st0" d="M193.6,22.8c0.5,0.5,0.8,1.3,0.8,2.3v4.1h-1.7v-3.9c0-0.6-0.1-1.1-0.4-1.4c-0.3-0.3-0.7-0.5-1.3-0.5
				c-0.6,0-1.1,0.2-1.5,0.6c-0.4,0.4-0.5,0.9-0.5,1.6v3.6h-1.7v-10h1.7v3.6c0.3-0.3,0.6-0.5,1-0.7c0.4-0.2,0.9-0.2,1.4-0.2
				C192.3,22,193.1,22.2,193.6,22.8z"/>
			<path class="st0" d="M196.6,20.6c-0.2-0.2-0.3-0.4-0.3-0.7s0.1-0.5,0.3-0.7c0.2-0.2,0.5-0.3,0.8-0.3c0.3,0,0.6,0.1,0.8,0.3
				c0.2,0.2,0.3,0.4,0.3,0.7c0,0.3-0.1,0.5-0.3,0.7c-0.2,0.2-0.5,0.3-0.8,0.3C197.1,20.9,196.8,20.8,196.6,20.6z M196.5,22h1.7v7.2
				h-1.7V22z"/>
			<path class="st0" d="M206.3,22.4c0.6,0.3,1,0.7,1.3,1.3c0.3,0.6,0.5,1.2,0.5,1.9c0,0.7-0.2,1.4-0.5,1.9c-0.3,0.6-0.7,1-1.3,1.3
				c-0.5,0.3-1.2,0.5-1.9,0.5c-1,0-1.7-0.3-2.3-1v3.5h-1.7V22h1.6V23c0.3-0.3,0.6-0.6,1-0.8c0.4-0.2,0.9-0.3,1.3-0.3
				C205.1,22,205.7,22.1,206.3,22.4z M205.7,27.2c0.4-0.4,0.6-1,0.6-1.6c0-0.7-0.2-1.2-0.6-1.6c-0.4-0.4-0.9-0.6-1.5-0.6
				c-0.4,0-0.8,0.1-1.1,0.3c-0.3,0.2-0.6,0.4-0.8,0.8c-0.2,0.3-0.3,0.7-0.3,1.2s0.1,0.8,0.3,1.2c0.2,0.3,0.4,0.6,0.8,0.8
				c0.3,0.2,0.7,0.3,1.1,0.3C204.8,27.9,205.3,27.7,205.7,27.2z"/>
			<path class="st0" d="M86.4,45.5l-1.2-1.1c-0.9,0.8-1.9,1.1-3.2,1.1c-0.7,0-1.2-0.1-1.8-0.3c-0.5-0.2-0.9-0.5-1.2-0.9
				c-0.3-0.4-0.4-0.8-0.4-1.3c0-0.6,0.2-1.1,0.5-1.5c0.3-0.4,0.9-0.9,1.7-1.3c-0.4-0.4-0.6-0.7-0.8-1.1c-0.2-0.3-0.2-0.7-0.2-1
				c0-0.7,0.2-1.2,0.7-1.6c0.5-0.4,1.2-0.6,2-0.6c0.8,0,1.4,0.2,1.8,0.6c0.5,0.4,0.7,0.9,0.7,1.5c0,0.5-0.2,0.9-0.4,1.3
				s-0.8,0.8-1.5,1.1l2,1.9c0.2-0.4,0.4-1,0.5-1.6l1.4,0.4c-0.2,0.8-0.5,1.5-0.8,2.1l1.2,1.1L86.4,45.5z M84.2,43.4L81.7,41
				c-0.5,0.3-0.9,0.6-1.1,0.9c-0.2,0.3-0.3,0.6-0.3,0.9c0,0.4,0.2,0.7,0.5,1c0.3,0.2,0.8,0.4,1.4,0.4C82.9,44.1,83.6,43.8,84.2,43.4
				z M81.6,37.3c-0.2,0.2-0.3,0.4-0.3,0.7c0,0.2,0.1,0.4,0.2,0.6c0.1,0.2,0.3,0.5,0.7,0.8c0.5-0.3,0.9-0.6,1.1-0.8
				c0.2-0.2,0.3-0.5,0.3-0.7c0-0.3-0.1-0.5-0.3-0.7c-0.2-0.2-0.5-0.2-0.8-0.2C82.1,37,81.8,37.1,81.6,37.3z"/>
			<path class="st0" d="M98.5,36.3c0.6,0.3,1.1,0.7,1.4,1.2c0.3,0.5,0.5,1.1,0.5,1.8c0,0.7-0.2,1.3-0.5,1.8
				c-0.3,0.5-0.8,0.9-1.4,1.2c-0.6,0.3-1.3,0.4-2.1,0.4h-2.1v2.7h-1.7v-9.4h3.9C97.2,35.9,97.9,36.1,98.5,36.3z M98,40.6
				c0.4-0.3,0.6-0.8,0.6-1.4c0-0.6-0.2-1.1-0.6-1.4s-1-0.5-1.7-0.5h-2v3.7h2C97,41.1,97.6,41,98,40.6z"/>
			<path class="st0" d="M109,38.1v7.2h-1.6v-0.9c-0.3,0.3-0.6,0.6-1,0.7c-0.4,0.2-0.8,0.3-1.3,0.3c-1,0-1.7-0.3-2.3-0.8
				c-0.6-0.5-0.8-1.3-0.8-2.4v-4.1h1.7V42c0,0.6,0.1,1.1,0.4,1.4c0.3,0.3,0.7,0.5,1.2,0.5c0.6,0,1.1-0.2,1.4-0.6
				c0.4-0.4,0.5-0.9,0.5-1.6v-3.6H109z"/>
			<path class="st0" d="M117.1,38.5c0.6,0.3,1,0.7,1.3,1.3c0.3,0.6,0.5,1.2,0.5,1.9s-0.2,1.4-0.5,1.9c-0.3,0.6-0.7,1-1.3,1.3
				c-0.5,0.3-1.2,0.5-1.9,0.5c-0.5,0-0.9-0.1-1.3-0.3c-0.4-0.2-0.7-0.4-1-0.8v0.9h-1.6v-10h1.7V39c0.3-0.3,0.6-0.6,1-0.7
				c0.4-0.2,0.8-0.2,1.3-0.2C115.9,38.1,116.5,38.2,117.1,38.5z M116.5,43.4c0.4-0.4,0.6-1,0.6-1.6s-0.2-1.2-0.6-1.6
				c-0.4-0.4-0.9-0.6-1.5-0.6c-0.4,0-0.8,0.1-1.1,0.3c-0.3,0.2-0.6,0.4-0.8,0.8c-0.2,0.3-0.3,0.7-0.3,1.2c0,0.4,0.1,0.8,0.3,1.2
				c0.2,0.3,0.4,0.6,0.8,0.8c0.3,0.2,0.7,0.3,1.1,0.3C115.6,44,116.1,43.8,116.5,43.4z"/>
			<path class="st0" d="M120.4,35.4h1.7v10h-1.7V35.4z"/>
			<path class="st0" d="M124.4,36.7c-0.2-0.2-0.3-0.4-0.3-0.7c0-0.3,0.1-0.5,0.3-0.7c0.2-0.2,0.5-0.3,0.8-0.3c0.3,0,0.6,0.1,0.8,0.3
				c0.2,0.2,0.3,0.4,0.3,0.7c0,0.3-0.1,0.5-0.3,0.7c-0.2,0.2-0.5,0.3-0.8,0.3C124.8,37,124.6,36.9,124.4,36.7z M124.3,38.1h1.7v7.2
				h-1.7V38.1z"/>
			<path class="st0" d="M128.7,45.2c-0.6-0.2-1-0.3-1.3-0.6l0.6-1.3c0.3,0.2,0.7,0.4,1.2,0.5c0.5,0.1,0.9,0.2,1.3,0.2
				c1,0,1.5-0.3,1.5-0.8c0-0.3-0.1-0.4-0.4-0.5c-0.3-0.1-0.7-0.2-1.2-0.3c-0.6-0.1-1.1-0.2-1.4-0.3c-0.4-0.1-0.7-0.3-1-0.6
				c-0.3-0.3-0.4-0.7-0.4-1.2c0-0.7,0.3-1.2,0.9-1.6c0.6-0.4,1.3-0.6,2.3-0.6c0.5,0,1,0.1,1.5,0.2c0.5,0.1,0.9,0.3,1.2,0.4l-0.6,1.3
				c-0.6-0.4-1.3-0.5-2.1-0.5c-0.5,0-0.9,0.1-1.1,0.2c-0.3,0.1-0.4,0.3-0.4,0.6c0,0.3,0.1,0.5,0.4,0.6c0.3,0.1,0.7,0.2,1.3,0.3
				c0.6,0.1,1,0.2,1.4,0.3c0.4,0.1,0.7,0.3,0.9,0.6c0.3,0.3,0.4,0.7,0.4,1.2c0,0.7-0.3,1.2-0.9,1.6c-0.6,0.4-1.4,0.6-2.4,0.6
				C129.8,45.4,129.2,45.3,128.7,45.2z"/>
			<path class="st0" d="M141.3,38.9c0.5,0.5,0.8,1.3,0.8,2.3v4.1h-1.7v-3.9c0-0.6-0.1-1.1-0.4-1.4c-0.3-0.3-0.7-0.5-1.3-0.5
				c-0.6,0-1.1,0.2-1.5,0.6c-0.4,0.4-0.5,0.9-0.5,1.6v3.6h-1.7v-10h1.7V39c0.3-0.3,0.6-0.5,1-0.7c0.4-0.2,0.9-0.2,1.4-0.2
				C140.1,38.1,140.8,38.3,141.3,38.9z"/>
			<path class="st0" d="M144.4,36.7c-0.2-0.2-0.3-0.4-0.3-0.7c0-0.3,0.1-0.5,0.3-0.7s0.5-0.3,0.8-0.3c0.3,0,0.6,0.1,0.8,0.3
				c0.2,0.2,0.3,0.4,0.3,0.7c0,0.3-0.1,0.5-0.3,0.7c-0.2,0.2-0.5,0.3-0.8,0.3C144.8,37,144.6,36.9,144.4,36.7z M144.3,38.1h1.7v7.2
				h-1.7V38.1z"/>
			<path class="st0" d="M154.4,38.9c0.5,0.5,0.8,1.3,0.8,2.3v4.1h-1.7v-3.9c0-0.6-0.1-1.1-0.4-1.4c-0.3-0.3-0.7-0.5-1.3-0.5
				c-0.6,0-1.1,0.2-1.5,0.6c-0.4,0.4-0.5,0.9-0.5,1.6v3.6h-1.7v-7.2h1.6v0.9c0.3-0.3,0.6-0.6,1-0.8c0.4-0.2,0.9-0.3,1.4-0.3
				C153.1,38.1,153.9,38.3,154.4,38.9z"/>
			<path class="st0" d="M164.5,38.1v6.1c0,2.5-1.3,3.8-3.9,3.8c-0.7,0-1.3-0.1-2-0.3c-0.6-0.2-1.1-0.4-1.5-0.8l0.8-1.3
				c0.3,0.3,0.7,0.5,1.2,0.6c0.5,0.2,1,0.2,1.5,0.2c0.8,0,1.4-0.2,1.7-0.5c0.4-0.4,0.6-0.9,0.6-1.6V44c-0.3,0.3-0.6,0.6-1,0.7
				c-0.4,0.2-0.9,0.2-1.4,0.2c-0.7,0-1.3-0.1-1.8-0.4c-0.6-0.3-1-0.7-1.3-1.2c-0.3-0.5-0.5-1.1-0.5-1.8c0-0.7,0.2-1.3,0.5-1.8
				c0.3-0.5,0.8-0.9,1.3-1.2c0.6-0.3,1.2-0.4,1.8-0.4c0.5,0,1,0.1,1.4,0.3c0.4,0.2,0.8,0.4,1.1,0.8v-1H164.5z M162.3,43
				c0.4-0.4,0.6-0.9,0.6-1.5c0-0.6-0.2-1.1-0.6-1.5c-0.4-0.4-0.9-0.6-1.6-0.6c-0.6,0-1.2,0.2-1.6,0.6c-0.4,0.4-0.6,0.9-0.6,1.5
				c0,0.6,0.2,1.1,0.6,1.5c0.4,0.4,0.9,0.6,1.6,0.6C161.3,43.6,161.9,43.4,162.3,43z"/>
			<path class="st0" d="M171.4,45.1c-0.7-0.2-1.2-0.5-1.6-0.8l0.6-1.4c0.4,0.3,0.9,0.6,1.4,0.7c0.6,0.2,1.1,0.3,1.7,0.3
				c0.7,0,1.2-0.1,1.6-0.3c0.3-0.2,0.5-0.5,0.5-0.9c0-0.3-0.1-0.5-0.3-0.7c-0.2-0.2-0.4-0.3-0.7-0.4c-0.3-0.1-0.7-0.2-1.2-0.3
				c-0.7-0.2-1.3-0.3-1.7-0.5c-0.4-0.2-0.8-0.4-1.1-0.8s-0.5-0.9-0.5-1.5c0-0.5,0.1-1,0.4-1.4s0.7-0.8,1.3-1
				c0.6-0.3,1.3-0.4,2.1-0.4c0.6,0,1.1,0.1,1.7,0.2c0.6,0.1,1,0.3,1.4,0.6l-0.5,1.4c-0.4-0.2-0.8-0.4-1.3-0.6
				c-0.4-0.1-0.9-0.2-1.3-0.2c-0.7,0-1.2,0.1-1.5,0.3c-0.3,0.2-0.5,0.5-0.5,0.9c0,0.3,0.1,0.5,0.3,0.7c0.2,0.2,0.4,0.3,0.7,0.4
				c0.3,0.1,0.7,0.2,1.2,0.3c0.7,0.2,1.3,0.3,1.7,0.5c0.4,0.2,0.8,0.4,1.1,0.8c0.3,0.4,0.5,0.8,0.5,1.4c0,0.5-0.1,1-0.4,1.4
				c-0.3,0.4-0.7,0.8-1.3,1c-0.6,0.3-1.3,0.4-2.1,0.4C172.8,45.4,172.1,45.3,171.4,45.1z"/>
			<path class="st0" d="M183.2,44.9c-0.2,0.2-0.4,0.3-0.7,0.4s-0.6,0.1-0.9,0.1c-0.8,0-1.4-0.2-1.8-0.6c-0.4-0.4-0.6-1-0.6-1.8v-3.4
				h-1.2v-1.3h1.2v-1.6h1.7v1.6h1.9v1.3h-1.9V43c0,0.3,0.1,0.6,0.3,0.8c0.2,0.2,0.4,0.3,0.7,0.3c0.4,0,0.7-0.1,0.9-0.3L183.2,44.9z"
				/>
			<path class="st0" d="M191.5,38.1v7.2h-1.6v-0.9c-0.3,0.3-0.6,0.6-1,0.7c-0.4,0.2-0.8,0.3-1.3,0.3c-1,0-1.7-0.3-2.3-0.8
				s-0.8-1.3-0.8-2.4v-4.1h1.7V42c0,0.6,0.1,1.1,0.4,1.4c0.3,0.3,0.7,0.5,1.2,0.5c0.6,0,1.1-0.2,1.4-0.6c0.4-0.4,0.5-0.9,0.5-1.6
				v-3.6H191.5z"/>
			<path class="st0" d="M200.7,35.4v10h-1.6v-0.9c-0.3,0.3-0.6,0.6-1,0.8c-0.4,0.2-0.9,0.3-1.3,0.3c-0.7,0-1.3-0.2-1.9-0.5
				c-0.5-0.3-1-0.7-1.3-1.3c-0.3-0.6-0.5-1.2-0.5-1.9s0.2-1.4,0.5-1.9c0.3-0.6,0.7-1,1.3-1.3c0.6-0.3,1.2-0.5,1.9-0.5
				c0.5,0,0.9,0.1,1.3,0.2c0.4,0.2,0.7,0.4,1,0.7v-3.7H200.7z M198,43.7c0.3-0.2,0.6-0.4,0.8-0.8c0.2-0.3,0.3-0.7,0.3-1.2
				c0-0.4-0.1-0.8-0.3-1.2c-0.2-0.3-0.4-0.6-0.8-0.8c-0.3-0.2-0.7-0.3-1.1-0.3c-0.4,0-0.8,0.1-1.1,0.3c-0.3,0.2-0.6,0.4-0.8,0.8
				c-0.2,0.3-0.3,0.7-0.3,1.2c0,0.4,0.1,0.8,0.3,1.2c0.2,0.3,0.4,0.6,0.8,0.8c0.3,0.2,0.7,0.3,1.1,0.3C197.4,44,197.7,43.9,198,43.7
				z"/>
			<path class="st0" d="M203,36.7c-0.2-0.2-0.3-0.4-0.3-0.7c0-0.3,0.1-0.5,0.3-0.7s0.5-0.3,0.8-0.3c0.3,0,0.6,0.1,0.8,0.3
				c0.2,0.2,0.3,0.4,0.3,0.7c0,0.3-0.1,0.5-0.3,0.7c-0.2,0.2-0.5,0.3-0.8,0.3C203.5,37,203.2,36.9,203,36.7z M202.9,38.1h1.7v7.2
				h-1.7V38.1z"/>
			<path class="st0" d="M208.1,44.9c-0.6-0.3-1-0.7-1.4-1.3c-0.3-0.6-0.5-1.2-0.5-1.9s0.2-1.3,0.5-1.9c0.3-0.6,0.8-1,1.4-1.3
				c0.6-0.3,1.2-0.5,2-0.5c0.7,0,1.4,0.2,2,0.5c0.6,0.3,1,0.7,1.4,1.3c0.3,0.6,0.5,1.2,0.5,1.9s-0.2,1.3-0.5,1.9
				c-0.3,0.6-0.8,1-1.4,1.3c-0.6,0.3-1.2,0.5-2,0.5C209.3,45.4,208.7,45.3,208.1,44.9z M211.6,43.4c0.4-0.4,0.6-1,0.6-1.6
				s-0.2-1.2-0.6-1.6c-0.4-0.4-0.9-0.6-1.5-0.6c-0.6,0-1.1,0.2-1.5,0.6c-0.4,0.4-0.6,1-0.6,1.6s0.2,1.2,0.6,1.6
				c0.4,0.4,0.9,0.6,1.5,0.6C210.7,44,211.2,43.8,211.6,43.4z"/>
		</g>
	</g>
</g>
</svg>
