<?xml version="1.0" standalone="no"?>
<!DOCTYPE svg PUBLIC "-//W3C//DTD SVG 20010904//EN"
 "http://www.w3.org/TR/2001/REC-SVG-20010904/DTD/svg10.dtd">
<svg version="1.0" xmlns="http://www.w3.org/2000/svg"
 width="700.000000pt" height="700.000000pt" viewBox="0 0 700.000000 700.000000"
 preserveAspectRatio="xMidYMid meet">
<metadata>
Created by potrace 1.11, written by Peter Selinger 2001-2013
</metadata>
<g transform="translate(0.000000,700.000000) scale(0.100000,-0.100000)"
fill="#000000" stroke="none">
<path d="M0 3500 l0 -3500 3500 0 3500 0 0 680 0 680 -1190 0 -1190 0 -2 1627
-3 1628 -490 -807 -490 -807 -135 0 -135 0 -490 807 -490 807 -3 -1118 -2
-1117 -280 0 -280 0 0 1655 0 1655 283 0 282 -1 554 -925 c305 -508 558 -923
563 -922 5 2 267 417 582 923 l574 920 261 3 261 2 0 -1880 0 -1880 910 0 910
0 0 2535 0 2535 -3500 0 -3500 0 0 -3500z"/>
</g>
</svg>
